<?xml version="1.0" encoding="iso-8859-1"?>
<!-- Generator: Adobe Illustrator 19.0.0, SVG Export Plug-In . SVG Version: 6.00 Build 0)  -->
<svg version="1.1" id="Capa_1" xmlns="http://www.w3.org/2000/svg" xmlns:xlink="http://www.w3.org/1999/xlink" x="0px" y="0px"
	 viewBox="0 0 512 512" style="enable-background:new 0 0 512 512;" xml:space="preserve">
<path style="fill:#FF8980;" d="M375.233,177.481c-38.054,58.225-110.738,101.874-142.871,119.21c-2.439,1.316-5.361,1.317-7.8,0.003
	c-3.904-2.103-8.4-4.593-13.358-7.454c-7.217-4.161-15.425-9.105-24.185-14.747c-2.701-1.742-5.444-3.546-8.239-5.413
	c-43.25-28.983-96.48-73.692-114.793-127.121c-1.074-3.108-2.023-6.247-2.847-9.418c-6.612-25.457-5.006-52.709,9.386-81.066
	c36.2-71.346,120.342-57.246,157.939-25.134c6.477-5.527,14.319-10.513,23.059-14.622C293.594-8.085,356.43-7.594,386.413,51.476
	c4.078,8.041,7.134,15.988,9.251,23.841C405.686,112.257,395.247,146.882,375.233,177.481z"/>
<g>
	<path style="fill:#FF5D49;" d="M178.78,269.08c-43.25-28.983-96.48-73.692-114.793-127.121c2.847-0.375,5.778-0.574,8.76-0.574
		c12.546,0,25.343,3.421,36.043,9.428c10.7-6.007,23.497-9.428,36.043-9.428c11.848,0,22.704,3.045,31.955,8.75
		c9.261,5.705,16.895,14.069,22.287,24.696C209.984,196.316,215.25,230.065,178.78,269.08z"/>
	<path style="fill:#FF5D49;" d="M375.233,177.481c-38.054,58.225-110.738,101.874-142.871,119.21
		c-2.439,1.316-5.361,1.317-7.8,0.003c-3.904-2.103-8.4-4.593-13.358-7.454c-0.626-4.161-0.949-8.395-0.949-12.651v-24.665
		c0-17.855,12.452-32.862,29.129-36.784V104.79c0-19.242,15.654-34.896,34.885-34.896h13.36c19.267,0,34.885,15.619,34.885,34.885
		v55.744c0.709-0.052,1.429-0.073,2.138-0.073h14.924c12.63,0,23.643,7.019,29.348,17.365c1.512-0.219,3.056-0.334,4.62-0.334
		L375.233,177.481L375.233,177.481z"/>
	<path style="fill:#FF5D49;" d="M448.478,70.262c-2.549,1.467-5.674,1.467-8.223,0c-15.002-8.631-47.704-31.214-34.232-57.765
		c8.79-17.321,29.214-13.896,38.343-6.101c9.129-7.795,29.553-11.219,38.343,6.101C496.182,39.047,463.48,61.63,448.478,70.262z"/>
</g>
<path style="fill:#FF8980;" d="M112.757,299.293c-2.473,1.364-5.462,1.364-7.936,0C77.506,284.228,4.277,237.424,32.448,181.907
	c17.502-34.485,58.165-27.667,76.341-12.148c18.176-15.519,58.839-22.337,76.341,12.148
	C213.301,237.424,140.071,284.228,112.757,299.293z"/>
<g>
	<path style="fill:#FFC197;" d="M289.613,451.095h150.762v52.664c0,4.552-3.69,8.241-8.241,8.241h-134.28
		c-4.552,0-8.241-3.69-8.241-8.241V451.095z"/>
	<rect x="289.611" y="451.091" style="fill:#FFC197;" width="150.76" height="38.67"/>
	<path style="fill:#FFC197;" d="M440.38,451.099v52.66c0,4.552-3.69,8.241-8.242,8.241H297.853c-4.552,0-8.242-3.69-8.242-8.241
		v-52.66H440.38z"/>
	<path style="fill:#FFC197;" d="M282.701,383.659c3.695,15.361,5.805,34.114,5.805,56.979h155.86v-56.979H282.701z"/>
	<path style="fill:#FFC197;" d="M444.371,224.085V440.64H288.503c0-62.151-15.576-93.994-36.087-109.632
		c-16.905-12.888-26.527-33.162-26.527-54.425V251.92c0-9.23,5.656-17.132,13.681-20.449c2.606-1.082,5.46-1.679,8.458-1.679h6.995
		V104.789c0-10.631,8.623-19.244,19.254-19.244h13.351c10.632,0,19.244,8.612,19.244,19.244v87.875
		c0.659-9.251,8.355-16.565,17.781-16.565h14.927c9.859,0,17.843,7.984,17.843,17.843v15.309c0-8.901,7.222-16.122,16.122-16.122
		h12.857c8.901,0,16.122,7.222,16.122,16.122v14.835c0-8.911,7.211-16.122,16.122-16.122h9.601
		C437.149,207.962,444.371,215.173,444.371,224.085z"/>
</g>
<path style="fill:#FFBF00;" d="M289.613,451.095h150.762v52.664c0,4.552-3.69,8.241-8.241,8.241h-134.28
	c-4.552,0-8.241-3.69-8.241-8.241V451.095z"/>
<rect x="289.611" y="451.091" style="fill:#F79800;" width="150.76" height="38.67"/>
<path style="fill:#FF9E5C;" d="M282.701,383.659c3.695,15.361,5.805,34.114,5.805,56.979h155.86v-56.979H282.701z"/>
<path style="fill:#FFD96E;" d="M458.439,405.668v60.85c0,4.552-3.69,8.242-8.241,8.242H279.794c-4.552,0-8.241-3.69-8.241-8.242
	v-60.85c0-4.552,3.69-8.242,8.241-8.242h170.403C454.749,397.427,458.439,401.116,458.439,405.668z"/>
<g>
	<path style="fill:#FFBF00;" d="M437.694,443.82h-1.778c-4.267,0-7.726-3.459-7.726-7.726s3.459-7.726,7.726-7.726h1.778
		c4.267,0,7.726,3.459,7.726,7.726C445.42,440.36,441.961,443.82,437.694,443.82z"/>
	<path style="fill:#FFBF00;" d="M417.58,443.82h-1.778c-4.267,0-7.726-3.459-7.726-7.726s3.459-7.726,7.726-7.726h1.778
		c4.267,0,7.726,3.459,7.726,7.726C425.307,440.36,421.847,443.82,417.58,443.82z"/>
</g>
<path style="fill:#FF9E5C;" d="M255.022,229.792v26.198c0,4.265-3.461,7.726-7.726,7.726s-7.726-3.461-7.726-7.726v-24.519
	c2.606-1.082,5.46-1.679,8.458-1.679H255.022z"/>
<g>
</g>
<g>
</g>
<g>
</g>
<g>
</g>
<g>
</g>
<g>
</g>
<g>
</g>
<g>
</g>
<g>
</g>
<g>
</g>
<g>
</g>
<g>
</g>
<g>
</g>
<g>
</g>
<g>
</g>
</svg>
