<svg id="Capa_1" enable-background="new 0 0 512 512" height="512" viewBox="0 0 512 512" width="512" xmlns="http://www.w3.org/2000/svg"><g><path d="m496.999 461c-2.26 0-4.525-.51-6.619-1.54l-122-60c-5.13-2.522-8.38-7.743-8.38-13.46v-80c0-5.717 3.25-10.938 8.38-13.46l122-60c4.65-2.286 10.15-2.013 14.548.727 4.398 2.738 7.072 7.552 7.072 12.733v200c0 5.181-2.674 9.995-7.072 12.733-2.418 1.506-5.169 2.267-7.929 2.267z" fill="#0052be"/><g><path d="m360 346v40c0 5.717 3.25 10.938 8.38 13.46l122 60c2.094 1.03 4.359 1.54 6.619 1.54 2.76 0 5.511-.761 7.929-2.267 4.398-2.738 7.072-7.552 7.072-12.733v-100z" fill="#00337a"/></g><path d="m335 481h-280c-30.327 0-55-24.673-55-55v-160c0-30.327 24.673-55 55-55h280c30.327 0 55 24.673 55 55v160c0 30.327-24.673 55-55 55z" fill="#2681ff"/><g><path d="m0 346v80c0 30.327 24.673 55 55 55h280c30.327 0 55-24.673 55-55v-80z" fill="#0052be"/></g><path d="m322.5 376h-110c-8.284 0-15-6.716-15-15v-75c0-8.284 6.716-15 15-15h110c8.284 0 15 6.716 15 15v75c0 8.284-6.716 15-15 15z" fill="#bceaf9"/><path d="m137.5 421h-70c-8.284 0-15-6.716-15-15s6.716-15 15-15h70c8.284 0 15 6.716 15 15s-6.716 15-15 15z" fill="#00337a"/><path d="m137.5 361h-70c-8.284 0-15-6.716-15-15s6.716-15 15-15h70c8.284 0 15 6.716 15 15s-6.716 15-15 15z" fill="#0052be"/><g><path d="m67.5 361h70c8.284 0 15-6.716 15-15h-100c0 8.284 6.716 15 15 15z" fill="#00337a"/></g><g><circle cx="285" cy="136" fill="#2681ff" r="90"/><path d="m285 46v180c49.706 0 90-40.294 90-90s-40.294-90-90-90z" fill="#0052be"/><path d="m285 241c-57.897 0-105-47.103-105-105s47.103-105 105-105 105 47.103 105 105-47.103 105-105 105zm0-180c-41.355 0-75 33.645-75 75s33.645 75 75 75 75-33.645 75-75-33.645-75-75-75z" fill="#0052be"/><circle cx="285" cy="136" fill="#bceaf9" r="30"/><path d="m285 106v60c16.543 0 30-13.457 30-30s-13.457-30-30-30z" fill="#8bb9ff"/><path d="m285 181c-24.813 0-45-20.187-45-45s20.187-45 45-45 45 20.187 45 45-20.187 45-45 45zm0-60c-8.271 0-15 6.729-15 15s6.729 15 15 15 15-6.729 15-15-6.729-15-15-15z" fill="#0052be"/><g fill="#00337a"><path d="m285 91v30c8.271 0 15 6.729 15 15s-6.729 15-15 15v30c24.813 0 45-20.187 45-45s-20.187-45-45-45z"/><path d="m285 31v30c41.355 0 75 33.645 75 75s-33.645 75-75 75v30c57.897 0 105-47.103 105-105s-47.103-105-105-105z"/></g></g><g><circle cx="105" cy="136" fill="#2681ff" r="90"/><path d="m105 46v180c49.706 0 90-40.294 90-90s-40.294-90-90-90z" fill="#0052be"/><path d="m105 241c-57.897 0-105-47.103-105-105s47.103-105 105-105 105 47.103 105 105-47.103 105-105 105zm0-180c-41.355 0-75 33.645-75 75s33.645 75 75 75 75-33.645 75-75-33.645-75-75-75z" fill="#0052be"/><circle cx="105" cy="136" fill="#bceaf9" r="30"/><path d="m105 106v60c16.543 0 30-13.457 30-30s-13.457-30-30-30z" fill="#8bb9ff"/><path d="m105 181c-24.813 0-45-20.187-45-45s20.187-45 45-45 45 20.187 45 45-20.187 45-45 45zm0-60c-8.271 0-15 6.729-15 15s6.729 15 15 15 15-6.729 15-15-6.729-15-15-15z" fill="#0052be"/><g fill="#00337a"><path d="m105 91v30c8.271 0 15 6.729 15 15s-6.729 15-15 15v30c24.813 0 45-20.187 45-45s-20.187-45-45-45z"/><path d="m105 31v30c41.355 0 75 33.645 75 75s-33.645 75-75 75v30c57.897 0 105-47.103 105-105s-47.103-105-105-105z"/></g></g><g><path d="m197.5 346v15c0 8.284 6.716 15 15 15h110c8.284 0 15-6.716 15-15v-15z" fill="#8bb9ff"/></g></g></svg>